<svg xmlns="http://www.w3.org/2000/svg" fill="none" stroke="currentColor" stroke-width="2" stroke-linecap="round" stroke-linejoin="round">
  <symbol id="sparkles" viewBox="0 0 24 24"><path d="M12 3l1.6 5.1L19 10l-5.4 1.9L12 17l-1.6-5.1L5 10l5.4-1.9L12 3z"/><path d="M19 14l.8 2.2L22 17l-2.2.8L19 20l-.8-2.2L16 17l2.2-.8L19 14z"/><path d="M5 14l.8 2.2L8 17l-2.2.8L5 20l-.8-2.2L2 17l2.2-.8L5 14z"/></symbol>
  <symbol id="languages" viewBox="0 0 24 24"><path d="M5 4h9"/><path d="M9 4v16"/><path d="M4 9h10"/><path d="M12 9c-1.3 4-3.8 6.6-8 8"/><path d="M5 9c1.2 3.5 3.3 5.8 7 7"/><path d="M17 20l3-8 3 8"/><path d="M18 17h4"/></symbol>
  <symbol id="log-out" viewBox="0 0 24 24"><path d="M10 17l5-5-5-5"/><path d="M15 12H3"/><path d="M21 19V5a2 2 0 0 0-2-2h-5"/><path d="M14 21h5a2 2 0 0 0 2-2"/></symbol>
  <symbol id="home" viewBox="0 0 24 24"><path d="M3 11l9-8 9 8"/><path d="M5 10v10h5v-6h4v6h5V10"/></symbol>
  <symbol id="clipboard-check" viewBox="0 0 24 24"><path d="M9 5h6"/><path d="M9 3h6v4H9z"/><path d="M8 5H6a2 2 0 0 0-2 2v13h16V7a2 2 0 0 0-2-2h-2"/><path d="M8 14l3 3 5-6"/></symbol>
  <symbol id="line-chart" viewBox="0 0 24 24"><path d="M3 3v18h18"/><path d="M7 16l4-5 4 3 5-7"/></symbol>
  <symbol id="brain" viewBox="0 0 24 24"><path d="M9 3a4 4 0 0 0-4 4 4 4 0 0 0-1 7 4 4 0 0 0 5 6"/><path d="M15 3a4 4 0 0 1 4 4 4 4 0 0 1 1 7 4 4 0 0 1-5 6"/><path d="M9 3v18"/><path d="M15 3v18"/><path d="M9 9H6"/><path d="M15 9h3"/><path d="M9 15H6"/><path d="M15 15h3"/></symbol>
  <symbol id="trophy" viewBox="0 0 24 24"><path d="M8 4h8v5a4 4 0 0 1-8 0V4z"/><path d="M8 6H4v2a4 4 0 0 0 4 4"/><path d="M16 6h4v2a4 4 0 0 1-4 4"/><path d="M12 13v5"/><path d="M8 21h8"/><path d="M9 18h6"/></symbol>
  <symbol id="user" viewBox="0 0 24 24"><path d="M20 21a8 8 0 0 0-16 0"/><circle cx="12" cy="7" r="4"/></symbol>
  <symbol id="map" viewBox="0 0 24 24"><path d="M9 18l-6 3V6l6-3 6 3 6-3v15l-6 3-6-3z"/><path d="M9 3v15"/><path d="M15 6v15"/></symbol>
  <symbol id="shield-check" viewBox="0 0 24 24"><path d="M12 3l8 4v5c0 5-3.4 8.5-8 10-4.6-1.5-8-5-8-10V7l8-4z"/><path d="M8.5 12l2.3 2.3L16 9"/></symbol>
  <symbol id="book-open-check" viewBox="0 0 24 24"><path d="M12 7v14"/><path d="M4 5a5 5 0 0 1 8 2 5 5 0 0 1 8-2v14a5 5 0 0 0-8 2 5 5 0 0 0-8-2V5z"/><path d="M14 12l2 2 4-5"/></symbol>
  <symbol id="star" viewBox="0 0 24 24"><path d="M12 3l2.7 5.5 6.1.9-4.4 4.3 1 6.1L12 16.9 6.6 19.8l1-6.1-4.4-4.3 6.1-.9L12 3z"/></symbol>
  <symbol id="bar-chart-3" viewBox="0 0 24 24"><path d="M3 3v18h18"/><path d="M7 16V9"/><path d="M12 16V5"/><path d="M17 16v-3"/></symbol>
  <symbol id="route" viewBox="0 0 24 24"><circle cx="6" cy="19" r="3"/><circle cx="18" cy="5" r="3"/><path d="M9 19h4a5 5 0 0 0 0-10h-2a5 5 0 0 1 0-10h4"/></symbol>
  <symbol id="trash-2" viewBox="0 0 24 24"><path d="M3 6h18"/><path d="M8 6V4h8v2"/><path d="M19 6l-1 14H6L5 6"/><path d="M10 11v6"/><path d="M14 11v6"/></symbol>
</svg>
